<?xml version="1.0" encoding="utf-8"?>
<!-- Generator: $$$/GeneralStr/196=Adobe Illustrator 27.6.0, SVG Export Plug-In . SVG Version: 6.00 Build 0)  -->
<svg version="1.1" id="图层_1" xmlns="http://www.w3.org/2000/svg" xmlns:xlink="http://www.w3.org/1999/xlink" x="0px" y="0px"
	 viewBox="0 0 32 32" style="enable-background:new 0 0 32 32;" xml:space="preserve">
<style type="text/css">
	.st0{fill:#2C2C2C;}
</style>
<path class="st0" d="M20.6,13.1c-0.3-0.1-0.4-0.3-0.4-0.6c0-0.2,0.1-0.4,0.3-0.6c0.1,0,0.2-0.2,0.5-0.4c0.3-0.2,0.7-0.5,1.1-0.9
	c-0.7-0.9-1.6-1.5-2.7-2c-1-0.5-2.2-0.7-3.4-0.7c-1.1,0-2.2,0.2-3.2,0.6c-1,0.4-1.8,1-2.6,1.7C9.6,11,9,11.9,8.6,12.9
	s-0.6,2-0.6,3.2c0,1.1,0.2,2.1,0.6,3.1s1,1.8,1.7,2.6c0.7,0.7,1.6,1.3,2.6,1.7c1,0.4,2,0.6,3.2,0.6c0.9,0,1.8-0.1,2.6-0.4
	c0.8-0.3,1.6-0.7,2.3-1.2c0.7-0.5,1.3-1.2,1.8-1.9c0.5-0.7,0.9-1.5,1.1-2.4c0.1-0.4,0.4-0.7,0.7-1c0.3-0.3,0.7-0.4,1.2-0.4
	c0.6,0,1,0.2,1.4,0.6c0.4,0.4,0.6,0.9,0.6,1.4c0,0.2,0,0.5-0.1,0.7c-0.4,1.2-0.9,2.4-1.7,3.5c-0.7,1.1-1.6,2-2.6,2.7
	c-1,0.8-2.1,1.4-3.4,1.8C18.7,27.8,17.4,28,16,28c-1.7,0-3.2-0.3-4.7-0.9c-1.5-0.6-2.7-1.5-3.8-2.6S5.6,22.1,5,20.7
	c-0.6-1.5-1-3-1-4.7s0.3-3.2,1-4.7c0.6-1.5,1.5-2.7,2.6-3.8C8.6,6.4,9.9,5.6,11.3,5C12.8,4.3,14.4,4,16,4c1.8,0,3.5,0.4,5.1,1.1
	c1.6,0.8,2.9,1.8,4,3.1c0.4-0.3,0.8-0.6,1-0.8c0.3-0.2,0.5-0.4,0.5-0.4c0.1-0.1,0.2-0.2,0.3-0.2c0.1,0,0.2,0,0.3,0
	c0.1,0,0.2,0.1,0.3,0.3s0.1,0.4,0.2,0.6c0,0.2,0,0.4,0.1,0.8c0,0.4,0,0.8,0.1,1.3c0,0.5,0,1,0,1.6c0,0.5,0,1.1,0,1.5
	c0,0.6-0.2,1-0.4,1.3c-0.1,0.1-0.4,0.2-0.6,0.2c-0.3,0-0.6,0-0.9-0.1c-0.5-0.1-1-0.2-1.6-0.3c-0.6-0.1-1.1-0.3-1.7-0.4
	c-0.5-0.1-1-0.3-1.4-0.4C20.9,13.3,20.7,13.2,20.6,13.1L20.6,13.1C20.6,13.1,20.6,13.1,20.6,13.1z"/>
</svg>
